<svg width="2071" height="650" viewBox="0 0 2071 650" fill="none" xmlns="http://www.w3.org/2000/svg">
<path fill-rule="evenodd" clip-rule="evenodd" d="M395 0C353.287 4.07273 314.048 22.6124 284.16 52.7474C250.122 87.0665 231 133.613 231 182.148L344.982 182.148C344.982 164.093 352.095 146.778 364.758 134.011C373.205 125.494 383.659 119.467 395 116.398V0Z" fill="black"/>
<path fill-rule="evenodd" clip-rule="evenodd" d="M231 397V198H345V397C345 421.032 340.305 444.829 331.184 467.031C322.063 489.234 308.694 509.408 291.84 526.401C274.986 543.394 254.978 556.873 232.957 566.07C216.345 573.008 198.833 577.406 181 579.148V462.75C183.832 461.983 186.617 461.03 189.338 459.894C197.53 456.473 204.973 451.459 211.242 445.137C217.512 438.816 222.485 431.311 225.879 423.052C229.272 414.792 231.018 405.94 231.018 397L231 397Z" fill="#85C227"/>
<path fill-rule="evenodd" clip-rule="evenodd" d="M410 363.656C450.587 359.003 488.66 340.637 517.827 311.229C551.865 276.91 570.988 230.363 570.988 181.828C570.988 133.294 551.865 86.7468 517.827 52.4277C488.66 23.0191 450.587 4.65364 410 0L410 116.967C420.178 120.24 429.538 125.932 437.232 133.689C449.894 146.457 457.008 163.773 457.008 181.828C457.008 199.884 449.894 217.2 437.232 229.967C429.538 237.725 420.178 243.417 410 246.689L410 363.656Z" fill="#85C227"/>
<path fill-rule="evenodd" clip-rule="evenodd" d="M164 215C122.287 219.073 83.0481 237.612 53.1601 267.747C19.1223 302.067 0 348.613 0 397.148C0 445.683 19.1223 492.229 53.1601 526.548C83.0481 556.683 122.287 575.223 164 579.296V462.898C152.659 459.829 142.205 453.802 133.758 445.285C121.095 432.518 113.982 415.203 113.982 397.148C113.982 379.093 121.095 361.778 133.758 349.011C142.205 340.494 152.659 334.467 164 331.398V215Z" fill="black"/>
<path d="M588.075 312.5V575H530.312V312.5H588.075ZM719.667 528.516V452.295C719.667 447.054 718.926 442.554 717.445 438.794C715.964 435.034 713.629 432.129 710.438 430.078C707.248 427.913 702.976 426.831 697.621 426.831C693.292 426.831 689.589 427.572 686.513 429.053C683.437 430.534 681.101 432.756 679.506 435.718C677.911 438.68 677.113 442.44 677.113 446.997H619.521C619.521 438.452 621.4 430.534 625.16 423.242C629.034 415.837 634.503 409.399 641.566 403.931C648.744 398.462 657.289 394.246 667.201 391.284C677.227 388.208 688.393 386.67 700.697 386.67C715.395 386.67 728.497 389.119 740.004 394.019C751.625 398.918 760.797 406.266 767.519 416.064C774.241 425.749 777.602 437.939 777.602 452.637V528.345C777.602 540.422 778.285 549.593 779.652 555.859C781.02 562.012 782.956 567.424 785.463 572.095V575H727.699C724.965 569.303 722.914 562.354 721.547 554.15C720.294 545.833 719.667 537.288 719.667 528.516ZM726.674 462.036L727.016 492.798H701.552C696.197 492.798 691.64 493.538 687.88 495.02C684.234 496.501 681.272 498.551 678.993 501.172C676.828 503.678 675.233 506.527 674.208 509.717C673.297 512.907 672.841 516.268 672.841 519.8C672.841 523.218 673.638 526.294 675.233 529.028C676.942 531.649 679.221 533.7 682.069 535.181C684.918 536.662 688.108 537.402 691.64 537.402C698.02 537.402 703.432 536.206 707.875 533.813C712.432 531.307 715.907 528.288 718.3 524.756C720.692 521.224 721.889 517.92 721.889 514.844L734.535 538.428C732.257 542.985 729.636 547.599 726.674 552.271C723.826 556.942 720.237 561.271 715.907 565.259C711.692 569.132 706.508 572.323 700.355 574.829C694.203 577.222 686.741 578.418 677.968 578.418C666.575 578.418 656.093 576.082 646.522 571.411C637.066 566.74 629.49 560.246 623.793 551.929C618.096 543.498 615.248 533.813 615.248 522.876C615.248 513.306 616.957 504.761 620.375 497.241C623.907 489.722 629.205 483.341 636.269 478.101C643.332 472.86 652.333 468.872 663.271 466.138C674.208 463.403 687.082 462.036 701.894 462.036H726.674ZM863.563 553.296L911.415 390.088H973.28L898.939 602.515C897.344 607.186 895.237 612.199 892.616 617.554C889.996 623.022 886.407 628.206 881.85 633.105C877.292 638.005 871.425 641.992 864.247 645.068C857.183 648.145 848.41 649.683 837.929 649.683C832.346 649.683 828.244 649.398 825.624 648.828C823.118 648.372 819.244 647.518 814.003 646.265V605.078C815.484 605.078 816.737 605.078 817.763 605.078C818.902 605.078 820.155 605.078 821.522 605.078C827.675 605.078 832.574 604.451 836.22 603.198C839.979 601.945 842.828 600.122 844.765 597.729C846.815 595.337 848.41 592.432 849.55 589.014L863.563 553.296ZM851.43 390.088L887.831 519.458L894.154 580.469H855.531L789.735 390.088H851.43ZM1102.14 390.088H1154.43V567.822C1154.43 584.912 1150.5 599.382 1142.64 611.23C1134.78 623.193 1123.78 632.251 1109.66 638.403C1095.64 644.67 1079.24 647.803 1060.44 647.803C1052.12 647.803 1043.63 646.72 1034.97 644.556C1026.32 642.505 1018.23 639.429 1010.71 635.327C1003.19 631.226 996.864 626.156 991.737 620.117L1015.83 586.279C1020.51 591.52 1026.37 595.964 1033.44 599.609C1040.5 603.369 1048.82 605.249 1058.39 605.249C1066.7 605.249 1073.65 603.768 1079.24 600.806C1084.93 597.843 1089.26 593.514 1092.23 587.817C1095.19 582.235 1096.67 575.456 1096.67 567.48V433.838L1102.14 390.088ZM979.262 484.766V481.177C979.262 467.163 980.971 454.403 984.389 442.896C987.921 431.274 992.934 421.305 999.428 412.988C1006.04 404.557 1014.01 398.063 1023.35 393.506C1032.7 388.949 1043.23 386.67 1054.97 386.67C1067.62 386.67 1077.98 389.119 1086.07 394.019C1094.28 398.804 1100.83 405.526 1105.73 414.185C1110.74 422.843 1114.61 432.983 1117.35 444.604C1120.2 456.112 1122.59 468.53 1124.53 481.86V486.133C1122.59 498.665 1119.91 510.514 1116.49 521.68C1113.19 532.731 1108.86 542.529 1103.5 551.074C1098.15 559.619 1091.43 566.341 1083.34 571.24C1075.36 576.025 1065.79 578.418 1054.63 578.418C1043.01 578.418 1032.53 576.082 1023.18 571.411C1013.95 566.74 1006.04 560.189 999.428 551.758C992.934 543.327 987.921 533.415 984.389 522.021C980.971 510.628 979.262 498.21 979.262 484.766ZM1036.85 481.177V484.766C1036.85 491.715 1037.48 498.153 1038.73 504.077C1040.1 510.002 1042.15 515.243 1044.89 519.8C1047.62 524.243 1050.98 527.718 1054.97 530.225C1059.07 532.731 1063.86 533.984 1069.33 533.984C1077.64 533.984 1084.36 532.218 1089.49 528.687C1094.62 525.155 1098.32 520.142 1100.6 513.647C1102.88 507.153 1103.85 499.52 1103.5 490.747V477.246C1103.73 469.727 1103.22 463.118 1101.97 457.422C1100.71 451.611 1098.72 446.769 1095.99 442.896C1093.36 439.022 1089.83 436.117 1085.39 434.18C1081.06 432.129 1075.82 431.104 1069.67 431.104C1064.31 431.104 1059.58 432.357 1055.48 434.863C1051.38 437.37 1047.96 440.902 1045.23 445.459C1042.49 449.902 1040.39 455.2 1038.91 461.353C1037.54 467.391 1036.85 473.999 1036.85 481.177ZM1245.69 435.889V575H1188.1V390.088H1241.93L1245.69 435.889ZM1300.38 388.721L1299.35 442.212C1297.08 441.984 1294 441.699 1290.13 441.357C1286.25 441.016 1283.01 440.845 1280.38 440.845C1273.66 440.845 1267.85 441.642 1262.95 443.237C1258.17 444.718 1254.18 446.997 1250.99 450.073C1247.91 453.035 1245.64 456.795 1244.15 461.353C1242.79 465.91 1242.16 471.208 1242.27 477.246L1231.85 470.41C1231.85 457.992 1233.05 446.712 1235.44 436.572C1237.94 426.318 1241.48 417.489 1246.03 410.083C1250.59 402.563 1256.12 396.81 1262.61 392.822C1269.11 388.721 1276.4 386.67 1284.49 386.67C1287.33 386.67 1290.13 386.841 1292.86 387.183C1295.71 387.524 1298.22 388.037 1300.38 388.721ZM1306.87 484.424V480.835C1306.87 467.277 1308.81 454.801 1312.68 443.408C1316.56 431.901 1322.25 421.932 1329.77 413.501C1337.29 405.07 1346.58 398.519 1357.63 393.848C1368.68 389.062 1381.44 386.67 1395.91 386.67C1410.5 386.67 1423.31 389.062 1434.36 393.848C1445.53 398.519 1454.87 405.07 1462.39 413.501C1469.91 421.932 1475.61 431.901 1479.48 443.408C1483.36 454.801 1485.29 467.277 1485.29 480.835V484.424C1485.29 497.868 1483.36 510.343 1479.48 521.851C1475.61 533.244 1469.91 543.213 1462.39 551.758C1454.87 560.189 1445.59 566.74 1434.54 571.411C1423.48 576.082 1410.72 578.418 1396.25 578.418C1381.78 578.418 1368.97 576.082 1357.8 571.411C1346.64 566.74 1337.29 560.189 1329.77 551.758C1322.25 543.213 1316.56 533.244 1312.68 521.851C1308.81 510.343 1306.87 497.868 1306.87 484.424ZM1364.47 480.835V484.424C1364.47 491.374 1364.98 497.868 1366 503.906C1367.03 509.945 1368.74 515.243 1371.13 519.8C1373.52 524.243 1376.77 527.718 1380.87 530.225C1384.97 532.731 1390.1 533.984 1396.25 533.984C1402.29 533.984 1407.31 532.731 1411.29 530.225C1415.39 527.718 1418.64 524.243 1421.03 519.8C1423.43 515.243 1425.14 509.945 1426.16 503.906C1427.19 497.868 1427.7 491.374 1427.7 484.424V480.835C1427.7 474.113 1427.19 467.79 1426.16 461.865C1425.14 455.827 1423.43 450.529 1421.03 445.972C1418.64 441.3 1415.39 437.655 1411.29 435.034C1407.19 432.414 1402.06 431.104 1395.91 431.104C1389.87 431.104 1384.8 432.414 1380.7 435.034C1376.71 437.655 1373.52 441.3 1371.13 445.972C1368.74 450.529 1367.03 455.827 1366 461.865C1364.98 467.79 1364.47 474.113 1364.47 480.835ZM1618.93 530.054V390.088H1676.7V575H1622.69L1618.93 530.054ZM1624.4 492.456L1639.44 492.114C1639.44 504.533 1637.96 516.04 1635 526.636C1632.04 537.118 1627.65 546.232 1621.84 553.979C1616.14 561.727 1609.08 567.765 1600.65 572.095C1592.33 576.31 1582.7 578.418 1571.77 578.418C1562.65 578.418 1554.28 577.165 1546.64 574.658C1539.12 572.038 1532.63 567.993 1527.16 562.524C1521.69 556.942 1517.42 549.821 1514.34 541.162C1511.38 532.389 1509.9 521.908 1509.9 509.717V390.088H1567.49V510.059C1567.49 514.16 1568.01 517.692 1569.03 520.654C1570.06 523.617 1571.54 526.123 1573.48 528.174C1575.41 530.111 1577.81 531.592 1580.65 532.617C1583.62 533.529 1586.98 533.984 1590.74 533.984C1599.4 533.984 1606.17 532.161 1611.07 528.516C1615.97 524.87 1619.39 519.914 1621.33 513.647C1623.38 507.381 1624.4 500.317 1624.4 492.456ZM1765.05 429.565V575H1707.46V390.088H1761.46L1765.05 429.565ZM1758.22 476.221L1744.72 476.562C1744.72 462.435 1746.42 449.845 1749.84 438.794C1753.26 427.629 1758.1 418.172 1764.37 410.425C1770.64 402.677 1778.1 396.81 1786.76 392.822C1795.53 388.721 1805.27 386.67 1815.98 386.67C1824.53 386.67 1832.33 387.923 1839.39 390.43C1846.57 392.936 1852.72 396.981 1857.85 402.563C1863.09 408.146 1867.08 415.552 1869.81 424.78C1872.66 433.895 1874.09 445.174 1874.09 458.618V575H1816.15V458.447C1816.15 451.042 1815.13 445.402 1813.08 441.528C1811.02 437.541 1808.06 434.806 1804.19 433.325C1800.31 431.844 1795.59 431.104 1790 431.104C1784.08 431.104 1779.07 432.243 1774.96 434.521C1770.86 436.8 1767.56 439.99 1765.05 444.092C1762.66 448.079 1760.89 452.808 1759.75 458.276C1758.73 463.745 1758.22 469.727 1758.22 476.221ZM2012.34 532.617V312.5H2070.28V575H2018.32L2012.34 532.617ZM1898.87 484.766V481.177C1898.87 467.163 1900.4 454.403 1903.48 442.896C1906.56 431.274 1911.11 421.305 1917.15 412.988C1923.19 404.557 1930.71 398.063 1939.71 393.506C1948.71 388.949 1959.08 386.67 1970.81 386.67C1981.3 386.67 1990.47 389.119 1998.33 394.019C2006.19 398.804 2012.91 405.526 2018.5 414.185C2024.08 422.843 2028.64 432.983 2032.17 444.604C2035.7 456.112 2038.38 468.53 2040.2 481.86V486.133C2038.38 498.665 2035.7 510.514 2032.17 521.68C2028.64 532.731 2024.08 542.529 2018.5 551.074C2012.91 559.619 2006.13 566.341 1998.16 571.24C1990.3 576.025 1981.07 578.418 1970.47 578.418C1958.74 578.418 1948.37 576.082 1939.37 571.411C1930.48 566.74 1923.02 560.189 1916.98 551.758C1911.06 543.327 1906.56 533.415 1903.48 522.021C1900.4 510.628 1898.87 498.21 1898.87 484.766ZM1956.46 481.177V484.766C1956.46 491.715 1956.91 498.153 1957.83 504.077C1958.74 510.002 1960.28 515.243 1962.44 519.8C1964.72 524.243 1967.68 527.718 1971.33 530.225C1975.09 532.731 1979.7 533.984 1985.17 533.984C1992.58 533.984 1998.67 532.218 2003.46 528.687C2008.36 525.155 2011.94 520.142 2014.22 513.647C2016.62 507.153 2017.64 499.52 2017.3 490.747V477.246C2017.53 469.727 2017.01 463.118 2015.76 457.422C2014.51 451.611 2012.51 446.769 2009.78 442.896C2007.16 439.022 2003.8 436.117 1999.7 434.18C1995.71 432.129 1990.98 431.104 1985.51 431.104C1980.16 431.104 1975.6 432.357 1971.84 434.863C1968.19 437.37 1965.23 440.902 1962.95 445.459C1960.67 449.902 1959.02 455.2 1958 461.353C1956.97 467.391 1956.46 473.999 1956.46 481.177Z" fill="black"/>
</svg>
