<svg width="2538" height="580" viewBox="0 0 2538 580" fill="none" xmlns="http://www.w3.org/2000/svg">
<path fillRule="evenodd" clipRule="evenodd" d="M395 0C353.287 4.07273 314.048 22.6124 284.16 52.7474C250.122 87.0665 231 133.613 231 182.148L344.982 182.148C344.982 164.093 352.095 146.778 364.758 134.011C373.205 125.494 383.659 119.467 395 116.398V0Z" fill="white"/>
<path fillRule="evenodd" clipRule="evenodd" d="M231 397V198L345 198V397H231ZM232.957 566.07C216.345 573.008 198.833 577.406 181 579.148V462.75C183.832 461.983 186.617 461.03 189.338 459.894C197.53 456.473 204.973 451.459 211.242 445.137C217.512 438.816 222.485 431.311 225.879 423.052C229.272 414.792 231.018 405.94 231.018 397H345C345 421.032 340.305 444.829 331.184 467.031C322.063 489.234 308.694 509.408 291.84 526.401C274.986 543.394 254.978 556.873 232.957 566.07Z" fill="#85C227"/>
<path fillRule="evenodd" clipRule="evenodd" d="M410 363.656C450.587 359.003 488.66 340.637 517.827 311.229C551.865 276.91 570.988 230.363 570.988 181.828C570.988 133.294 551.865 86.7468 517.827 52.4277C488.66 23.0191 450.587 4.65364 410 0L410 116.967C420.178 120.24 429.538 125.932 437.232 133.689C449.894 146.457 457.008 163.773 457.008 181.828C457.008 199.884 449.894 217.2 437.232 229.967C429.538 237.725 420.178 243.417 410 246.689L410 363.656Z" fill="#85C227"/>
<path fillRule="evenodd" clipRule="evenodd" d="M164 215C122.287 219.073 83.0481 237.612 53.1601 267.747C19.1223 302.067 0 348.613 0 397.148C0 445.683 19.1223 492.229 53.1601 526.548C83.0481 556.683 122.287 575.223 164 579.296V462.898C152.659 459.829 142.205 453.802 133.758 445.285C121.095 432.518 113.982 415.203 113.982 397.148C113.982 379.093 121.095 361.778 133.758 349.011C142.205 340.494 152.659 334.467 164 331.398V215Z" fill="white"/>
<path d="M581.5 254.3H652.6V404.3H730.9V464H581.5V254.3ZM828.602 254.3H895.802L979.802 464H906.902L893.402 427.4H831.002L817.502 464H744.602L828.602 254.3ZM877.802 375.2L862.202 326.9L846.602 375.2H877.802ZM1037.94 383.9L962.043 254.3H1037.94L1073.64 320.6L1112.34 254.3H1187.94L1109.04 383.9V464H1037.94V383.9Z" fill="#85C227"/>
<path d="M1302.62 468.5C1279.02 468.5 1258.42 464.2 1240.82 455.6C1223.42 446.8 1210.02 434.2 1200.62 417.8C1191.22 401.2 1186.52 381.7 1186.52 359.3C1186.52 336.7 1191.22 317.2 1200.62 300.8C1210.02 284.4 1223.42 271.8 1240.82 263C1258.42 254.2 1279.02 249.8 1302.62 249.8C1318.22 249.8 1331.82 251.1 1343.42 253.7C1355.02 256.3 1365.92 260.5 1376.12 266.3V332.9C1367.52 326.5 1357.72 321.9 1346.72 319.1C1335.92 316.3 1323.32 314.9 1308.92 314.9C1293.52 314.9 1281.22 318.8 1272.02 326.6C1263.02 334.2 1258.52 345.1 1258.52 359.3C1258.52 374.7 1262.22 386.4 1269.62 394.4C1277.02 402.2 1289.02 406.1 1305.62 406.1C1311.62 406.1 1316.82 405.3 1321.22 403.7V383.9H1298.12V343.1H1383.62V450.8C1363.02 462.6 1336.02 468.5 1302.62 468.5ZM1413.47 254.3H1514.27C1540.27 254.3 1560.87 260.8 1576.07 273.8C1591.27 286.8 1598.87 305.7 1598.87 330.5C1598.87 346.1 1595.77 359.4 1589.57 370.4C1583.37 381.2 1574.57 389.7 1563.17 395.9L1596.17 464H1524.47L1496.87 406.7H1483.37V464H1413.47V254.3ZM1499.27 353.6C1517.47 353.6 1526.57 345.9 1526.57 330.5C1526.57 315.1 1517.47 307.4 1499.27 307.4H1483.37V353.6H1499.27ZM1732.47 468.5C1711.07 468.5 1691.67 463.9 1674.27 454.7C1657.07 445.5 1643.47 432.7 1633.47 416.3C1623.47 399.7 1618.47 380.7 1618.47 359.3C1618.47 337.9 1623.47 318.9 1633.47 302.3C1643.47 285.7 1657.07 272.8 1674.27 263.6C1691.67 254.4 1711.07 249.8 1732.47 249.8C1753.67 249.8 1772.87 254.4 1790.07 263.6C1807.47 272.8 1821.17 285.7 1831.17 302.3C1841.17 318.9 1846.17 337.9 1846.17 359.3C1846.17 380.7 1841.17 399.7 1831.17 416.3C1821.17 432.7 1807.47 445.5 1790.07 454.7C1772.87 463.9 1753.67 468.5 1732.47 468.5ZM1732.47 401.6C1744.47 401.6 1754.37 397.8 1762.17 390.2C1769.97 382.6 1773.87 372.3 1773.87 359.3C1773.87 346.3 1769.97 336 1762.17 328.4C1754.37 320.8 1744.47 317 1732.47 317C1720.27 317 1710.27 320.8 1702.47 328.4C1694.67 336 1690.77 346.3 1690.77 359.3C1690.77 372.3 1694.67 382.6 1702.47 390.2C1710.47 397.8 1720.47 401.6 1732.47 401.6ZM1975.79 468.5C1953.19 468.5 1934.29 464.2 1919.09 455.6C1903.89 447 1892.69 435.3 1885.49 420.5C1878.29 405.7 1874.69 388.7 1874.69 369.5V254.3H1945.79V367.4C1945.79 379.2 1948.19 388.1 1952.99 394.1C1957.79 400.1 1965.39 403.1 1975.79 403.1C1986.19 403.1 1993.69 400.1 1998.29 394.1C2003.09 388.1 2005.49 379.2 2005.49 367.4V254.3H2076.89V369.5C2076.89 388.7 2073.29 405.7 2066.09 420.5C2058.89 435.3 2047.69 447 2032.49 455.6C2017.29 464.2 1998.39 468.5 1975.79 468.5ZM2111.5 254.3H2174.2L2236.6 351.8V254.3H2304.7V464H2242L2179.6 366.2V464H2111.5V254.3ZM2340.66 254.3H2421.06C2444.26 254.3 2464.56 258.5 2481.96 266.9C2499.56 275.3 2513.16 287.3 2522.76 302.9C2532.36 318.5 2537.16 336.9 2537.16 358.1C2537.16 392.9 2526.76 419.3 2505.96 437.3C2485.36 455.1 2457.06 464 2421.06 464H2340.66V254.3ZM2425.86 398C2451.86 398 2464.86 384.7 2464.86 358.1C2464.86 345.9 2461.46 336.6 2454.66 330.2C2447.86 323.6 2438.26 320.3 2425.86 320.3H2411.76V398H2425.86Z" fill="white"/>
</svg>
