<svg width="2137" height="627" viewBox="0 0 2137 627" fill="none" xmlns="http://www.w3.org/2000/svg">
<path fill-rule="evenodd" clip-rule="evenodd" d="M181 561.148C198.833 559.406 216.345 555.008 232.957 548.07C254.978 538.873 274.986 525.394 291.84 508.401C308.694 491.408 322.063 471.234 331.184 449.031C340.305 426.829 345 403.032 345 379H231.018C231.018 387.94 229.272 396.792 225.879 405.052C222.485 413.311 217.512 420.816 211.242 427.137C204.973 433.459 197.53 438.473 189.338 441.894C186.617 443.03 183.832 443.984 181 444.75V561.148Z" fill="#85C227"/>
<path fill-rule="evenodd" clip-rule="evenodd" d="M231 180V379H345V180L231 180Z" fill="#85C227"/>
<path fill-rule="evenodd" clip-rule="evenodd" d="M512.355 335.159C482.508 355.267 447.417 366 411.519 366V251.078C424.873 251.078 437.928 247.086 449.032 239.605C460.135 232.125 468.789 221.492 473.9 209.053C479.01 196.613 480.348 182.925 477.742 169.719C475.137 156.513 468.706 144.382 459.263 134.861C449.82 125.34 437.789 118.857 424.692 116.23C411.594 113.603 398.018 114.951 385.68 120.104C373.343 125.257 362.797 133.982 355.378 145.178C351.521 150.998 348.599 157.35 346.682 164H231C234.052 134.522 244.172 106.131 260.608 81.3307C280.551 51.2365 308.897 27.781 342.062 13.9301C375.227 0.0792834 411.721 -3.54472 446.928 3.51638C482.136 10.5775 514.476 28.0065 539.859 53.5996C565.242 79.1926 582.529 111.8 589.532 147.299C596.535 182.797 592.941 219.592 579.203 253.031C565.466 286.47 542.203 315.051 512.355 335.159Z" fill="white"/>
<path fill-rule="evenodd" clip-rule="evenodd" d="M164 197C122.287 201.073 83.0481 219.612 53.1601 249.747C19.1223 284.067 0 330.613 0 379.148C0 427.683 19.1223 474.229 53.1601 508.548C83.0481 538.683 122.287 557.223 164 561.296V444.898C152.659 441.829 142.205 435.802 133.758 427.285C121.095 414.518 113.982 397.203 113.982 379.148C113.982 361.093 121.095 343.778 133.758 331.011C142.205 322.494 152.659 316.467 164 313.398V197Z" fill="white"/>
<path d="M645.075 262.5V525H587.312V262.5H645.075ZM776.667 478.516V402.295C776.667 397.054 775.926 392.554 774.445 388.794C772.964 385.034 770.629 382.129 767.438 380.078C764.248 377.913 759.976 376.831 754.621 376.831C750.292 376.831 746.589 377.572 743.513 379.053C740.437 380.534 738.101 382.756 736.506 385.718C734.911 388.68 734.113 392.44 734.113 396.997H676.521C676.521 388.452 678.4 380.534 682.16 373.242C686.034 365.837 691.503 359.399 698.566 353.931C705.744 348.462 714.289 344.246 724.201 341.284C734.227 338.208 745.393 336.67 757.697 336.67C772.395 336.67 785.497 339.119 797.004 344.019C808.625 348.918 817.797 356.266 824.519 366.064C831.241 375.749 834.602 387.939 834.602 402.637V478.345C834.602 490.422 835.285 499.593 836.652 505.859C838.02 512.012 839.956 517.424 842.463 522.095V525H784.699C781.965 519.303 779.914 512.354 778.547 504.15C777.294 495.833 776.667 487.288 776.667 478.516ZM783.674 412.036L784.016 442.798H758.552C753.197 442.798 748.64 443.538 744.88 445.02C741.234 446.501 738.272 448.551 735.993 451.172C733.828 453.678 732.233 456.527 731.208 459.717C730.297 462.907 729.841 466.268 729.841 469.8C729.841 473.218 730.638 476.294 732.233 479.028C733.942 481.649 736.221 483.7 739.069 485.181C741.918 486.662 745.108 487.402 748.64 487.402C755.02 487.402 760.432 486.206 764.875 483.813C769.432 481.307 772.907 478.288 775.3 474.756C777.692 471.224 778.889 467.92 778.889 464.844L791.535 488.428C789.257 492.985 786.636 497.599 783.674 502.271C780.826 506.942 777.237 511.271 772.907 515.259C768.692 519.132 763.508 522.323 757.355 524.829C751.203 527.222 743.741 528.418 734.968 528.418C723.575 528.418 713.093 526.082 703.522 521.411C694.066 516.74 686.49 510.246 680.793 501.929C675.096 493.498 672.248 483.813 672.248 472.876C672.248 463.306 673.957 454.761 677.375 447.241C680.907 439.722 686.205 433.341 693.269 428.101C700.332 422.86 709.333 418.872 720.271 416.138C731.208 413.403 744.082 412.036 758.894 412.036H783.674ZM920.563 503.296L968.415 340.088H1030.28L955.939 552.515C954.344 557.186 952.237 562.199 949.616 567.554C946.996 573.022 943.407 578.206 938.85 583.105C934.292 588.005 928.425 591.992 921.247 595.068C914.183 598.145 905.41 599.683 894.929 599.683C889.346 599.683 885.244 599.398 882.624 598.828C880.118 598.372 876.244 597.518 871.003 596.265V555.078C872.484 555.078 873.737 555.078 874.763 555.078C875.902 555.078 877.155 555.078 878.522 555.078C884.675 555.078 889.574 554.451 893.22 553.198C896.979 551.945 899.828 550.122 901.765 547.729C903.815 545.337 905.41 542.432 906.55 539.014L920.563 503.296ZM908.43 340.088L944.831 469.458L951.154 530.469H912.531L846.735 340.088H908.43ZM1312.4 385.889V525H1254.81V340.088H1308.64L1312.4 385.889ZM1367.09 338.721L1366.06 392.212C1363.78 391.984 1360.71 391.699 1356.83 391.357C1352.96 391.016 1349.71 390.845 1347.09 390.845C1340.37 390.845 1334.56 391.642 1329.66 393.237C1324.88 394.718 1320.89 396.997 1317.7 400.073C1314.62 403.035 1312.34 406.795 1310.86 411.353C1309.49 415.91 1308.87 421.208 1308.98 427.246L1298.56 420.41C1298.56 407.992 1299.75 396.712 1302.15 386.572C1304.65 376.318 1308.18 367.489 1312.74 360.083C1317.3 352.563 1322.82 346.81 1329.32 342.822C1335.81 338.721 1343.1 336.67 1351.19 336.67C1354.04 336.67 1356.83 336.841 1359.57 337.183C1362.42 337.524 1364.92 338.037 1367.09 338.721ZM1373.58 434.424V430.835C1373.58 417.277 1375.52 404.801 1379.39 393.408C1383.27 381.901 1388.96 371.932 1396.48 363.501C1404 355.07 1413.29 348.519 1424.34 343.848C1435.39 339.062 1448.15 336.67 1462.62 336.67C1477.2 336.67 1490.02 339.062 1501.07 343.848C1512.24 348.519 1521.58 355.07 1529.1 363.501C1536.62 371.932 1542.31 381.901 1546.19 393.408C1550.06 404.801 1552 417.277 1552 430.835V434.424C1552 447.868 1550.06 460.343 1546.19 471.851C1542.31 483.244 1536.62 493.213 1529.1 501.758C1521.58 510.189 1512.29 516.74 1501.24 521.411C1490.19 526.082 1477.43 528.418 1462.96 528.418C1448.49 528.418 1435.67 526.082 1424.51 521.411C1413.34 516.74 1404 510.189 1396.48 501.758C1388.96 493.213 1383.27 483.244 1379.39 471.851C1375.52 460.343 1373.58 447.868 1373.58 434.424ZM1431.17 430.835V434.424C1431.17 441.374 1431.69 447.868 1432.71 453.906C1433.74 459.945 1435.45 465.243 1437.84 469.8C1440.23 474.243 1443.48 477.718 1447.58 480.225C1451.68 482.731 1456.81 483.984 1462.96 483.984C1469 483.984 1474.01 482.731 1478 480.225C1482.1 477.718 1485.35 474.243 1487.74 469.8C1490.13 465.243 1491.84 459.945 1492.87 453.906C1493.89 447.868 1494.41 441.374 1494.41 434.424V430.835C1494.41 424.113 1493.89 417.79 1492.87 411.865C1491.84 405.827 1490.13 400.529 1487.74 395.972C1485.35 391.3 1482.1 387.655 1478 385.034C1473.9 382.414 1468.77 381.104 1462.62 381.104C1456.58 381.104 1451.51 382.414 1447.41 385.034C1443.42 387.655 1440.23 391.3 1437.84 395.972C1435.45 400.529 1433.74 405.827 1432.71 411.865C1431.69 417.79 1431.17 424.113 1431.17 430.835ZM1685.64 480.054V340.088H1743.41V525H1689.4L1685.64 480.054ZM1691.11 442.456L1706.15 442.114C1706.15 454.533 1704.67 466.04 1701.71 476.636C1698.74 487.118 1694.36 496.232 1688.55 503.979C1682.85 511.727 1675.79 517.765 1667.36 522.095C1659.04 526.31 1649.41 528.418 1638.47 528.418C1629.36 528.418 1620.99 527.165 1613.35 524.658C1605.83 522.038 1599.34 517.993 1593.87 512.524C1588.4 506.942 1584.13 499.821 1581.05 491.162C1578.09 482.389 1576.61 471.908 1576.61 459.717V340.088H1634.2V460.059C1634.2 464.16 1634.71 467.692 1635.74 470.654C1636.76 473.617 1638.25 476.123 1640.18 478.174C1642.12 480.111 1644.51 481.592 1647.36 482.617C1650.32 483.529 1653.68 483.984 1657.44 483.984C1666.1 483.984 1672.88 482.161 1677.78 478.516C1682.68 474.87 1686.1 469.914 1688.03 463.647C1690.08 457.381 1691.11 450.317 1691.11 442.456ZM1831.76 379.565V525H1774.17V340.088H1828.17L1831.76 379.565ZM1824.92 426.221L1811.42 426.562C1811.42 412.435 1813.13 399.845 1816.55 388.794C1819.97 377.629 1824.81 368.172 1831.08 360.425C1837.34 352.677 1844.81 346.81 1853.46 342.822C1862.24 338.721 1871.98 336.67 1882.69 336.67C1891.23 336.67 1899.04 337.923 1906.1 340.43C1913.28 342.936 1919.43 346.981 1924.56 352.563C1929.8 358.146 1933.79 365.552 1936.52 374.78C1939.37 383.895 1940.79 395.174 1940.79 408.618V525H1882.86V408.447C1882.86 401.042 1881.83 395.402 1879.78 391.528C1877.73 387.541 1874.77 384.806 1870.9 383.325C1867.02 381.844 1862.29 381.104 1856.71 381.104C1850.79 381.104 1845.77 382.243 1841.67 384.521C1837.57 386.8 1834.27 389.99 1831.76 394.092C1829.37 398.079 1827.6 402.808 1826.46 408.276C1825.44 413.745 1824.92 419.727 1824.92 426.221ZM2079.05 482.617V262.5H2136.98V525H2085.03L2079.05 482.617ZM1965.57 434.766V431.177C1965.57 417.163 1967.11 404.403 1970.19 392.896C1973.26 381.274 1977.82 371.305 1983.86 362.988C1989.9 354.557 1997.42 348.063 2006.42 343.506C2015.42 338.949 2025.79 336.67 2037.52 336.67C2048 336.67 2057.17 339.119 2065.04 344.019C2072.9 348.804 2079.62 355.526 2085.2 364.185C2090.78 372.843 2095.34 382.983 2098.87 394.604C2102.41 406.112 2105.08 418.53 2106.91 431.86V436.133C2105.08 448.665 2102.41 460.514 2098.87 471.68C2095.34 482.731 2090.78 492.529 2085.2 501.074C2079.62 509.619 2072.84 516.341 2064.87 521.24C2057 526.025 2047.78 528.418 2037.18 528.418C2025.44 528.418 2015.08 526.082 2006.08 521.411C1997.19 516.74 1989.73 510.189 1983.69 501.758C1977.76 493.327 1973.26 483.415 1970.19 472.021C1967.11 460.628 1965.57 448.21 1965.57 434.766ZM2023.17 431.177V434.766C2023.17 441.715 2023.62 448.153 2024.53 454.077C2025.44 460.002 2026.98 465.243 2029.15 469.8C2031.43 474.243 2034.39 477.718 2038.03 480.225C2041.79 482.731 2046.41 483.984 2051.88 483.984C2059.28 483.984 2065.38 482.218 2070.16 478.687C2075.06 475.155 2078.65 470.142 2080.93 463.647C2083.32 457.153 2084.35 449.52 2084.01 440.747V427.246C2084.23 419.727 2083.72 413.118 2082.47 407.422C2081.21 401.611 2079.22 396.769 2076.49 392.896C2073.87 389.022 2070.5 386.117 2066.4 384.18C2062.42 382.129 2057.69 381.104 2052.22 381.104C2046.86 381.104 2042.31 382.357 2038.55 384.863C2034.9 387.37 2031.94 390.902 2029.66 395.459C2027.38 399.902 2025.73 405.2 2024.7 411.353C2023.68 417.391 2023.17 423.999 2023.17 431.177Z" fill="white"/>
<path fill-rule="evenodd" clip-rule="evenodd" d="M1228.72 386.531C1236.46 373.328 1240.53 358.302 1240.53 343H1188.86C1188.86 349.121 1187.23 355.131 1184.14 360.412C1183.66 361.223 1183.16 362.011 1182.62 362.776C1189.29 369.475 1194.91 377.239 1199.21 385.821C1203.21 393.777 1205.96 402.217 1207.44 410.855C1215.98 404.186 1223.21 395.943 1228.72 386.531Z" fill="white"/>
<path fill-rule="evenodd" clip-rule="evenodd" d="M1126.98 514.524C1146.79 511.963 1165.18 502.577 1178.9 487.862C1194.25 471.414 1202.55 449.614 1202.03 427.126C1201.51 404.637 1192.21 383.244 1176.12 367.523C1162.69 354.396 1145.41 346.093 1126.98 343.71V396.488C1131.82 398.127 1136.28 400.84 1140.01 404.479C1146.44 410.768 1150.16 419.325 1150.37 428.321C1150.58 437.316 1147.26 446.036 1141.12 452.615C1137.2 456.819 1132.33 459.936 1126.98 461.747V514.524Z" fill="#85C227"/>
<path fill-rule="evenodd" clip-rule="evenodd" d="M1112.84 343C1093.74 345.268 1075.84 353.885 1062.11 367.622C1045.96 383.772 1036.88 405.677 1036.88 428.516C1036.88 451.356 1045.96 473.26 1062.11 489.41C1075.84 503.148 1093.74 511.765 1112.84 514.033V461.432C1107.53 459.792 1102.65 456.877 1098.64 452.874C1092.18 446.414 1088.55 437.652 1088.55 428.516C1088.55 419.38 1092.18 410.619 1098.64 404.159C1102.65 400.156 1107.53 397.24 1112.84 395.601V343Z" fill="white"/>
<path fill-rule="evenodd" clip-rule="evenodd" d="M1135.3 518.298C1132.63 517.19 1129.83 516.427 1126.98 516.02V464.143C1136.62 464.688 1146.12 466.854 1155.07 470.561C1165.52 474.889 1175.01 481.232 1183.01 489.229C1191.01 497.225 1197.35 506.719 1201.68 517.167C1204.59 524.197 1206.55 531.567 1207.52 539.082H1154.75C1154.5 538.361 1154.23 537.646 1153.94 536.941C1152.21 532.761 1149.67 528.964 1146.47 525.765C1143.28 522.566 1139.48 520.029 1135.3 518.298Z" fill="#85C227"/>
<path fill-rule="evenodd" clip-rule="evenodd" d="M1036 550.564C1038.27 569.663 1046.88 587.564 1060.62 601.301C1076.77 617.451 1098.68 626.524 1121.52 626.524C1144.36 626.524 1166.26 617.451 1182.41 601.301C1196.15 587.564 1204.76 569.663 1207.03 550.564L1154.43 550.564C1152.79 555.876 1149.88 560.762 1145.87 564.765C1139.41 571.225 1130.65 574.854 1121.52 574.854C1112.38 574.854 1103.62 571.225 1097.16 564.765C1093.16 560.762 1090.24 555.876 1088.6 550.564L1036 550.564Z" fill="white"/>
</svg>
